<svg xmlns="http://www.w3.org/2000/svg" viewBox="0 0 1024 1024" width="1024" height="1024">
  <title>folks app icon</title>
  <rect x="0" y="0" width="1024" height="1024" rx="229" ry="229" fill="#FAF7F0"/>
  <rect x="0.5" y="0.5" width="1023" height="1023" rx="228.5" ry="228.5" fill="none" stroke="#D9CFBC" stroke-width="1"/>
  <g transform="translate(324.86, 740.55) scale(0.4357, -0.4357)">
    <path d="M115 841Q115 872 159 872H274L332 1097Q374 1267 465.5 1354.0Q557 1441 705 1441Q789 1441 831.0 1405.5Q873 1370 873 1322Q873 1273 841.5 1241.5Q810 1210 758 1210Q711 1210 676.5 1235.0Q642 1260 611.5 1285.5Q581 1311 549 1311Q511 1311 484.5 1284.0Q458 1257 449 1215Q442 1180 456.0 1138.0Q470 1096 489.5 1051.0Q509 1006 520.0 960.0Q531 914 520 871H658Q703 871 703 842Q703 822 682.0 808.0Q661 794 627 794H499L264 -75Q248 -136 248 -171Q248 -198 261.5 -214.5Q275 -231 289.0 -244.5Q303 -258 303 -277Q303 -303 267.5 -330.0Q232 -357 175.0 -374.5Q118 -392 54 -392Q-13 -392 -30.5 -348.0Q-48 -304 -22 -211L228 681Q245 743 230.5 769.5Q216 796 154 803Q130 812 122.5 821.5Q115 831 115 841Z" fill="#1F1A14"/>
  </g>
</svg>
